<svg width="24" height="24" viewBox="0 0 24 24" fill="none" xmlns="http://www.w3.org/2000/svg">
<path opacity="0.4" d="M16.19 2H7.81C4.17 2 2 4.17 2 7.81V16.18C2 19.83 4.17 22 7.81 22H16.18C19.82 22 21.99 19.83 21.99 16.19V7.81C22 4.17 19.83 2 16.19 2Z" fill="white"/>
<path d="M14.2599 12L12.7499 11.47V8.08H13.1099C13.9199 8.08 14.5799 8.79 14.5799 9.66C14.5799 10.07 14.9199 10.41 15.3299 10.41C15.7399 10.41 16.0799 10.07 16.0799 9.66C16.0799 7.96 14.7499 6.58 13.1099 6.58H12.7499V6C12.7499 5.59 12.4099 5.25 11.9999 5.25C11.5899 5.25 11.2499 5.59 11.2499 6V6.58H10.5999C9.11991 6.58 7.90991 7.83 7.90991 9.36C7.90991 11.15 8.94991 11.72 9.73991 12L11.2499 12.53V15.91H10.8899C10.0799 15.91 9.41991 15.2 9.41991 14.33C9.41991 13.92 9.07991 13.58 8.66991 13.58C8.25991 13.58 7.91991 13.92 7.91991 14.33C7.91991 16.03 9.24991 17.41 10.8899 17.41H11.2499V18C11.2499 18.41 11.5899 18.75 11.9999 18.75C12.4099 18.75 12.7499 18.41 12.7499 18V17.42H13.3999C14.8799 17.42 16.0899 16.17 16.0899 14.64C16.0799 12.84 15.0399 12.27 14.2599 12ZM10.2399 10.59C9.72991 10.41 9.41991 10.24 9.41991 9.37C9.41991 8.66 9.94991 8.09 10.6099 8.09H11.2599V10.95L10.2399 10.59ZM13.3999 15.92H12.7499V13.06L13.7599 13.41C14.2699 13.59 14.5799 13.76 14.5799 14.63C14.5799 15.34 14.0499 15.92 13.3999 15.92Z" fill="white"/>
</svg>
