<svg width="24" height="24" viewBox="0 0 24 24" fill="none" xmlns="http://www.w3.org/2000/svg">
<path opacity="0.4" d="M10.96 2.06002L5.46005 4.12002C4.41005 4.52002 3.55005 5.76002 3.55005 6.89002V14.99C3.55005 15.8 4.08005 16.87 4.73005 17.35L10.23 21.46C11.2 22.19 12.79 22.19 13.76 21.46L19.26 17.35C19.91 16.86 20.4401 15.8 20.4401 14.99V6.89002C20.4401 5.77002 19.58 4.52002 18.53 4.13002L13.03 2.07002C12.47 1.85002 11.53 1.85002 10.96 2.06002Z" fill="white"/>
<path d="M10.66 14.23C10.47 14.23 10.28 14.16 10.13 14.01L8.51999 12.4C8.22999 12.11 8.22999 11.63 8.51999 11.34C8.80999 11.05 9.28999 11.05 9.57999 11.34L10.66 12.42L14.43 8.65C14.72 8.36 15.2 8.36 15.49 8.65C15.78 8.94 15.78 9.42 15.49 9.71L11.19 14.01C11.04 14.16 10.85 14.23 10.66 14.23Z" fill="white"/>
</svg>
