<svg width="40" height="41" viewBox="0 0 40 41" fill="none" xmlns="http://www.w3.org/2000/svg">
<rect y="0.5" width="40" height="40" rx="8" fill="url(#paint0_linear_1_327)"/>
<path opacity="0.4" d="M24.77 27.48H15.23C14.81 27.48 14.43 27.21 14.29 26.82L10.13 15.17C9.8 14.24 10.86 13.45 11.65 14.02L15.65 16.88C16.18 17.26 16.94 17.03 17.17 16.42L19.06 11.38C19.38 10.51 20.61 10.51 20.93 11.38L22.82 16.42C23.05 17.04 23.8 17.26 24.34 16.88L28.34 14.02C29.14 13.45 30.19 14.25 29.86 15.17L25.7 26.82C25.57 27.21 25.19 27.48 24.77 27.48Z" fill="white"/>
<path d="M25 30.5H15C14.59 30.5 14.25 30.16 14.25 29.75C14.25 29.34 14.59 29 15 29H25C25.41 29 25.75 29.34 25.75 29.75C25.75 30.16 25.41 30.5 25 30.5Z" fill="white"/>
<path d="M22.5 23.25H17.5C17.09 23.25 16.75 22.91 16.75 22.5C16.75 22.09 17.09 21.75 17.5 21.75H22.5C22.91 21.75 23.25 22.09 23.25 22.5C23.25 22.91 22.91 23.25 22.5 23.25Z" fill="white"/>
<defs>
<linearGradient id="paint0_linear_1_327" x1="0" y1="0.5" x2="40" y2="40.5" gradientUnits="userSpaceOnUse">
<stop stop-color="#FFDE2E"/>
<stop offset="1" stop-color="#E38B08"/>
</linearGradient>
</defs>
</svg>
